<svg width="57" height="17" viewBox="0 0 57 17" fill="none" xmlns="http://www.w3.org/2000/svg">
<path d="M8.54785 0C3.8271 0 0 3.80565 0 8.50005C0 13.1947 3.8271 17 8.54785 17C13.2691 17 17.0958 13.1947 17.0958 8.50005C17.0958 3.80595 13.2691 0.000406011 8.54775 0.000406011L8.54785 0ZM12.4678 12.2595C12.4314 12.3189 12.3835 12.3706 12.3269 12.4117C12.2703 12.4527 12.2061 12.4822 12.138 12.4985C12.07 12.5148 11.9993 12.5176 11.9301 12.5067C11.861 12.4958 11.7947 12.4715 11.735 12.4351C9.72801 11.2161 7.20152 10.94 4.2261 11.616C4.08833 11.6471 3.94375 11.6226 3.82415 11.5478C3.70454 11.473 3.61969 11.3541 3.58825 11.2171C3.57259 11.1493 3.57054 11.079 3.58222 11.0104C3.59389 10.9418 3.61906 10.8761 3.65628 10.8172C3.69351 10.7583 3.74205 10.7072 3.79914 10.667C3.85624 10.6268 3.92075 10.5981 3.98899 10.5827C7.2451 9.84293 10.0381 10.1614 12.2913 11.5307C12.5424 11.684 12.622 12.0098 12.4678 12.2595ZM13.5141 9.94504C13.3212 10.2569 12.9108 10.3553 12.5975 10.1635C10.2998 8.75909 6.79741 8.35236 4.07973 9.17271C3.72728 9.27858 3.35502 9.08105 3.24805 8.73117C3.197 8.56296 3.21512 8.38149 3.29844 8.22654C3.38175 8.0716 3.52345 7.95584 3.69247 7.90463C6.7968 6.96797 10.6561 7.42168 13.2946 9.03406C13.608 9.2259 13.707 9.63384 13.5141 9.94504ZM13.6039 7.53496C10.849 5.90777 6.30369 5.75815 3.67338 6.55201C3.25101 6.67939 2.80434 6.44228 2.67634 6.02226C2.61479 5.82047 2.63636 5.60263 2.73629 5.41664C2.83623 5.23066 3.00635 5.09176 3.20926 5.03048C6.22866 4.11899 11.2481 4.29509 14.4199 6.16752C14.5103 6.22069 14.5892 6.29108 14.6522 6.37465C14.7152 6.45822 14.761 6.55333 14.787 6.65453C14.813 6.75573 14.8186 6.86103 14.8036 6.9644C14.7886 7.06777 14.7533 7.16719 14.6996 7.25695C14.475 7.63474 13.983 7.75928 13.6043 7.53496H13.6039ZM23.2559 7.84678C21.7799 7.4968 21.5176 7.25116 21.5176 6.73502C21.5176 6.2474 21.9789 5.91924 22.6659 5.91924C23.3314 5.91924 23.9908 6.16843 24.6828 6.68142C24.7033 6.69695 24.7298 6.70315 24.7553 6.69909C24.7682 6.69725 24.7805 6.69283 24.7915 6.6861C24.8026 6.67936 24.8122 6.67045 24.8196 6.65991L25.5403 5.64975C25.5545 5.62972 25.5605 5.60505 25.5571 5.58077C25.5537 5.55648 25.5411 5.5344 25.5219 5.51901C24.6982 4.86199 23.7713 4.54256 22.6873 4.54256C21.094 4.54256 19.9804 5.49354 19.9804 6.85418C19.9804 8.31329 20.9409 8.82993 22.6006 9.22874C24.0122 9.55223 24.2511 9.82324 24.2511 10.3076C24.2511 10.8446 23.7693 11.1785 22.9935 11.1785C22.1321 11.1785 21.4288 10.8892 20.6428 10.2132C20.6232 10.1967 20.598 10.1884 20.5724 10.1899C20.5459 10.1919 20.5224 10.2041 20.506 10.2234L19.6976 11.1795C19.6639 11.2201 19.668 11.279 19.7068 11.3135C20.6214 12.1255 21.7462 12.5539 22.9609 12.5539C24.6777 12.5539 25.7873 11.6211 25.7873 10.1767C25.7903 8.95793 25.0564 8.28294 23.2589 7.8481L23.2559 7.84678ZM29.6721 6.39935C28.928 6.39935 28.3176 6.69086 27.8134 7.28821V6.61585C27.8135 6.59043 27.8035 6.56601 27.7855 6.54794C27.7675 6.52988 27.743 6.51966 27.7175 6.51953H26.3956C26.3425 6.51953 26.2997 6.56277 26.2997 6.61585V14.0866C26.2997 14.1393 26.3425 14.183 26.3956 14.183H27.7175C27.7705 14.183 27.8134 14.1393 27.8134 14.0866V11.7287C28.3176 12.29 28.928 12.565 29.6721 12.565C31.0552 12.565 32.4557 11.5064 32.4557 9.4825C32.4577 7.45823 31.0573 6.39925 29.6732 6.39925L29.6721 6.39935ZM30.9185 9.4825C30.9185 10.5126 30.2805 11.2323 29.3659 11.2323C28.4626 11.2323 27.7807 10.4802 27.7807 9.4825C27.7807 8.48472 28.4626 7.73279 29.3659 7.73279C30.2652 7.73269 30.9185 8.46848 30.9185 9.4825ZM36.0435 6.39935C34.2623 6.39935 32.867 7.76314 32.867 9.50452C32.867 11.2272 34.2532 12.5762 36.0221 12.5762C37.8094 12.5762 39.2088 11.2171 39.2088 9.4825C39.2088 7.7538 37.8185 6.39955 36.0435 6.39955V6.39935ZM36.0435 11.2425C35.0963 11.2425 34.3818 10.4852 34.3818 9.48199C34.3818 8.47417 35.0718 7.74284 36.0221 7.74284C36.9754 7.74284 37.694 8.49975 37.694 9.50402C37.694 10.5116 36.9999 11.2425 36.0435 11.2425ZM43.012 6.51953H41.5575V5.04104C41.5575 5.02845 41.5551 5.01598 41.5503 5.00434C41.5455 4.99269 41.5384 4.9821 41.5295 4.97316C41.5206 4.96423 41.51 4.95713 41.4984 4.95226C41.4867 4.9474 41.4742 4.94487 41.4615 4.94481H40.1397C40.0866 4.94481 40.0427 4.98805 40.0427 5.04104V6.51953H39.4078C39.3547 6.51953 39.3119 6.56277 39.3119 6.61585V7.74528C39.3119 7.79826 39.3547 7.8416 39.4078 7.8416H40.0427V10.7644C40.0427 11.9449 40.6337 12.5437 41.8004 12.5437C42.274 12.5437 42.667 12.4463 43.0375 12.2372C43.0681 12.2209 43.0865 12.1885 43.0865 12.1539V11.078C43.0865 11.0455 43.0692 11.0141 43.0406 10.9968C43.0267 10.988 43.0107 10.9829 42.9942 10.9822C42.9777 10.9815 42.9613 10.9851 42.9467 10.9928C42.6925 11.1196 42.4465 11.1785 42.1709 11.1785C41.7473 11.1785 41.5575 10.9867 41.5575 10.5583V7.84211H43.012C43.0651 7.84211 43.1079 7.79887 43.1079 7.74578V6.61646C43.1084 6.60386 43.1062 6.5913 43.1016 6.57955C43.097 6.5678 43.0901 6.55709 43.0812 6.54809C43.0723 6.53908 43.0617 6.53196 43.05 6.52716C43.0383 6.52235 43.0257 6.51996 43.013 6.52014L43.012 6.51953ZM48.0789 6.52531V6.34372C48.0789 5.80951 48.2851 5.57129 48.7464 5.57129C49.022 5.57129 49.2435 5.62569 49.4916 5.70791C49.5222 5.71745 49.5538 5.71268 49.5783 5.69451C49.5907 5.68559 49.6008 5.67384 49.6078 5.66025C49.6147 5.64665 49.6182 5.6316 49.6181 5.61635V4.50896C49.6184 4.48828 49.6118 4.46808 49.5995 4.45143C49.5871 4.43478 49.5697 4.42259 49.5497 4.41669C49.2884 4.33925 48.9536 4.25977 48.4514 4.25977C47.2317 4.25977 46.5855 4.94329 46.5855 6.23573V6.51384H45.9507C45.8976 6.51384 45.8537 6.55708 45.8537 6.61007V7.74528C45.8537 7.79826 45.8976 7.8416 45.9507 7.8416H46.5855V12.3488C46.5855 12.4026 46.6294 12.4453 46.6825 12.4453H48.0033C48.0574 12.4453 48.1003 12.4026 48.1003 12.3488V7.84191H49.3344L51.2247 12.3488C51.0104 12.8218 50.7991 12.9162 50.5113 12.9162C50.2785 12.9162 50.0325 12.8472 49.7825 12.7102C49.7588 12.6983 49.7314 12.6958 49.7059 12.7031C49.6804 12.7122 49.659 12.7305 49.6487 12.7548L49.2006 13.7323C49.1792 13.779 49.1976 13.8328 49.2425 13.8572C49.71 14.1089 50.1315 14.2165 50.6531 14.2165C51.6289 14.2165 52.1689 13.7638 52.6435 12.5478L54.9361 6.65686C54.9421 6.6423 54.9442 6.62648 54.9425 6.61085C54.9407 6.59523 54.935 6.5803 54.9259 6.56744C54.9173 6.55456 54.9056 6.54401 54.8919 6.53671C54.8782 6.52941 54.8628 6.5256 54.8473 6.52562H53.4714C53.4295 6.52562 53.3928 6.5517 53.3795 6.59017L51.9699 10.5928L50.4265 6.58753C50.4196 6.56938 50.4073 6.55374 50.3913 6.54269C50.3753 6.53163 50.3562 6.52568 50.3367 6.52562H48.0789V6.52531ZM45.1412 6.51953H43.8194C43.7663 6.51953 43.7224 6.56277 43.7224 6.61585V12.3488C43.7224 12.4026 43.7663 12.4453 43.8194 12.4453H45.1412C45.1943 12.4453 45.2382 12.4026 45.2382 12.3488V6.61626C45.2382 6.60359 45.2357 6.59105 45.2309 6.57934C45.226 6.56764 45.2189 6.557 45.2098 6.54805C45.2008 6.5391 45.1901 6.53201 45.1784 6.52718C45.1666 6.52236 45.154 6.51989 45.1412 6.51993V6.51953ZM44.488 3.90898C43.9643 3.90898 43.5397 4.33042 43.5397 4.85102C43.5397 4.97485 43.5642 5.09746 43.6119 5.21186C43.6595 5.32626 43.7294 5.43021 43.8175 5.51776C43.9055 5.60532 44.01 5.67476 44.1251 5.72214C44.2401 5.76952 44.3634 5.7939 44.488 5.79388C45.0116 5.79388 45.4352 5.37194 45.4352 4.85102C45.4352 4.33052 45.0106 3.90898 44.488 3.90898ZM56.065 8.36292C55.5424 8.36292 55.1351 7.94524 55.1351 7.43803C55.1351 6.93082 55.5475 6.50836 56.0701 6.50836C56.5927 6.50836 57 6.92594 57 7.43275C57 7.93996 56.5876 8.36292 56.065 8.36292ZM56.0701 6.60032C55.5934 6.60032 55.2331 6.9769 55.2331 7.43803C55.2331 7.89895 55.5914 8.27045 56.065 8.27045C56.5417 8.27045 56.902 7.89418 56.902 7.43275C56.902 6.97182 56.5437 6.60032 56.0701 6.60032ZM56.2763 7.52786L56.5397 7.89408H56.3171L56.0803 7.5581H55.8772V7.89408H55.6914V6.92331H56.1263C56.3539 6.92331 56.5029 7.03871 56.5029 7.23299C56.5039 7.39215 56.411 7.48939 56.2773 7.52786H56.2763ZM56.1191 7.08987H55.8772V7.39692H56.1191C56.2396 7.39692 56.312 7.33815 56.312 7.24324C56.312 7.14336 56.2396 7.08987 56.1191 7.08987Z" fill="white"/>
</svg>
